<svg width="33" height="33" viewBox="0 0 33 33" fill="none" xmlns="http://www.w3.org/2000/svg">
<path d="M21.6485 21.415C21.4849 21.5002 21.29 21.5252 21.0936 21.4634C20.7139 21.3439 20.4985 20.9307 20.6181 20.551L22.9014 13.297L15.6474 11.0137C15.2676 10.8941 15.0523 10.481 15.1718 10.1012C15.2913 9.72152 15.7045 9.50618 16.0842 9.6257L24.0322 12.1275C24.4119 12.247 24.6273 12.6601 24.5078 13.0399L22.006 20.9879C21.9442 21.1843 21.812 21.3298 21.6485 21.415Z" fill="white"/>
<path d="M24.0039 13.5432L9.51711 21.0935C9.1642 21.2774 8.71901 21.1373 8.53507 20.7844C8.35114 20.4315 8.49127 19.9863 8.84419 19.8023L23.3309 12.2521C23.6839 12.0681 24.129 12.2083 24.313 12.5612C24.4969 12.9141 24.3568 13.3593 24.0039 13.5432Z" fill="white"/>
</svg>
