<svg width="24" height="25" viewBox="0 0 24 25" fill="none" xmlns="http://www.w3.org/2000/svg">
<path d="M17.45 22.8024C16.32 22.8024 15.13 22.5324 13.9 22.0124C12.7 21.5024 11.49 20.8024 10.31 19.9524C9.14 19.0924 8.01 18.1324 6.94 17.0824C5.88 16.0124 4.92 14.8824 4.07 13.7224C3.21 12.5224 2.52 11.3224 2.03 10.1624C1.51 8.92237 1.25 7.72237 1.25 6.59237C1.25 5.81237 1.39 5.07237 1.66 4.38237C1.94 3.67237 2.39 3.01237 3 2.44237C3.77 1.68237 4.65 1.30237 5.59 1.30237C5.98 1.30237 6.38 1.39237 6.72 1.55237C7.11 1.73237 7.44 2.00237 7.68 2.36237L10 5.63237C10.21 5.92237 10.37 6.20237 10.48 6.48237C10.61 6.78237 10.68 7.08237 10.68 7.37237C10.68 7.75237 10.57 8.12237 10.36 8.47237C10.21 8.74237 9.98 9.03237 9.69 9.32237L9.01 10.0324C9.02 10.0624 9.03 10.0824 9.04 10.1024C9.16 10.3124 9.4 10.6724 9.86 11.2124C10.35 11.7724 10.81 12.2824 11.27 12.7524C11.86 13.3324 12.35 13.7924 12.81 14.1724C13.38 14.6524 13.75 14.8924 13.97 15.0024L13.95 15.0524L14.68 14.3324C14.99 14.0224 15.29 13.7924 15.58 13.6424C16.13 13.3024 16.83 13.2424 17.53 13.5324C17.79 13.6424 18.07 13.7924 18.37 14.0024L21.69 16.3624C22.06 16.6124 22.33 16.9324 22.49 17.3124C22.64 17.6924 22.71 18.0424 22.71 18.3924C22.71 18.8724 22.6 19.3524 22.39 19.8024C22.18 20.2524 21.92 20.6424 21.59 21.0024C21.02 21.6324 20.4 22.0824 19.68 22.3724C18.99 22.6524 18.24 22.8024 17.45 22.8024ZM5.59 2.80237C5.04 2.80237 4.53 3.04237 4.04 3.52237C3.58 3.95237 3.26 4.42237 3.06 4.93237C2.85 5.45237 2.75 6.00237 2.75 6.59237C2.75 7.52237 2.97 8.53237 3.41 9.57237C3.86 10.6324 4.49 11.7324 5.29 12.8324C6.09 13.9324 7 15.0024 8 16.0124C9 17.0024 10.08 17.9224 11.19 18.7324C12.27 19.5224 13.38 20.1624 14.48 20.6224C16.19 21.3524 17.79 21.5224 19.11 20.9724C19.62 20.7624 20.07 20.4424 20.48 19.9824C20.71 19.7324 20.89 19.4624 21.04 19.1424C21.16 18.8924 21.22 18.6324 21.22 18.3724C21.22 18.2124 21.19 18.0524 21.11 17.8724C21.08 17.8124 21.02 17.7024 20.83 17.5724L17.51 15.2124C17.31 15.0724 17.13 14.9724 16.96 14.9024C16.74 14.8124 16.65 14.7224 16.31 14.9324C16.11 15.0324 15.93 15.1824 15.73 15.3824L14.97 16.1324C14.58 16.5124 13.98 16.6024 13.52 16.4324L13.25 16.3124C12.84 16.0924 12.36 15.7524 11.83 15.3024C11.35 14.8924 10.83 14.4124 10.2 13.7924C9.71 13.2924 9.22 12.7624 8.71 12.1724C8.24 11.6224 7.9 11.1524 7.69 10.7624L7.57 10.4624C7.51 10.2324 7.49 10.1024 7.49 9.96237C7.49 9.60237 7.62 9.28237 7.87 9.03237L8.62 8.25237C8.82 8.05237 8.97 7.86237 9.07 7.69237C9.15 7.56237 9.18 7.45237 9.18 7.35237C9.18 7.27237 9.15 7.15237 9.1 7.03237C9.03 6.87237 8.92 6.69237 8.78 6.50237L6.46 3.22237C6.36 3.08237 6.24 2.98237 6.09 2.91237C5.93 2.84237 5.76 2.80237 5.59 2.80237ZM13.95 15.0624L13.79 15.7424L14.06 15.0424C14.01 15.0324 13.97 15.0424 13.95 15.0624Z" fill="#0071FF"/>
<path d="M18.5 9.80237C18.09 9.80237 17.75 9.46237 17.75 9.05237C17.75 8.69237 17.39 7.94237 16.79 7.30237C16.2 6.67237 15.55 6.30237 15 6.30237C14.59 6.30237 14.25 5.96237 14.25 5.55237C14.25 5.14237 14.59 4.80237 15 4.80237C15.97 4.80237 16.99 5.32237 17.88 6.27237C18.71 7.16237 19.25 8.25237 19.25 9.05237C19.25 9.46237 18.91 9.80237 18.5 9.80237Z" fill="#0071FF"/>
<path d="M22 9.80237C21.59 9.80237 21.25 9.46237 21.25 9.05237C21.25 5.60237 18.45 2.80237 15 2.80237C14.59 2.80237 14.25 2.46237 14.25 2.05237C14.25 1.64237 14.59 1.30237 15 1.30237C19.27 1.30237 22.75 4.78237 22.75 9.05237C22.75 9.46237 22.41 9.80237 22 9.80237Z" fill="#0071FF"/>
</svg>
