<svg width="33" height="32" viewBox="0 0 33 32" fill="none" xmlns="http://www.w3.org/2000/svg">
<path d="M23.3476 11.6267C23.0943 11.6267 22.841 11.5334 22.641 11.3334L19.9743 8.66673C19.5876 8.28006 19.5876 7.64006 19.9743 7.25339C20.361 6.86673 21.001 6.86673 21.3876 7.25339L23.3476 9.21339L27.9743 4.60006C28.361 4.21339 29.001 4.21339 29.3876 4.60006C29.7743 4.98673 29.7743 5.62673 29.3876 6.01339L24.0543 11.3467C23.8543 11.5201 23.601 11.6267 23.3476 11.6267Z" fill="white"/>
<path opacity="0.4" d="M16.401 18.9466L12.041 23.3066C11.561 22.88 11.0943 22.44 10.641 21.9866C9.26763 20.6 8.02763 19.1466 6.92096 17.6266C5.82763 16.1066 4.94763 14.5866 4.30763 13.08C3.66763 11.56 3.34763 10.1066 3.34763 8.71996C3.34763 7.81329 3.50763 6.94663 3.82763 6.14663C4.14763 5.33329 4.65429 4.58663 5.36096 3.91996C6.21429 3.07996 7.14763 2.66663 8.13429 2.66663C8.50763 2.66663 8.88096 2.74663 9.21429 2.90663C9.56096 3.06663 9.86763 3.30663 10.1076 3.65329L13.201 8.01329C13.441 8.34663 13.6143 8.65329 13.7343 8.94663C13.8543 9.22663 13.921 9.50663 13.921 9.75996C13.921 10.08 13.8276 10.4 13.641 10.7066C13.4676 11.0133 13.2143 11.3333 12.8943 11.6533L11.881 12.7066C11.7343 12.8533 11.6676 13.0266 11.6676 13.24C11.6676 13.3466 11.681 13.44 11.7076 13.5466C11.7476 13.6533 11.7876 13.7333 11.8143 13.8133C12.0543 14.2533 12.4676 14.8266 13.0543 15.52C13.6543 16.2133 14.2943 16.92 14.9876 17.6266C15.4676 18.0933 15.9343 18.5466 16.401 18.9466Z" fill="white"/>
<path d="M29.9743 24.44C29.9743 24.8133 29.9076 25.2 29.7743 25.5733C29.7343 25.68 29.6943 25.7866 29.641 25.8933C29.4143 26.3733 29.121 26.8266 28.7343 27.2533C28.081 27.9733 27.361 28.4933 26.5476 28.8266C26.5343 28.8266 26.521 28.84 26.5076 28.84C25.721 29.16 24.8676 29.3333 23.9476 29.3333C22.5876 29.3333 21.1343 29.0133 19.601 28.36C18.0676 27.7066 16.5343 26.8266 15.0143 25.72C14.4943 25.3333 13.9743 24.9466 13.481 24.5333L17.841 20.1733C18.2143 20.4533 18.5476 20.6666 18.8276 20.8133C18.8943 20.84 18.9743 20.88 19.0676 20.92C19.1743 20.96 19.281 20.9733 19.401 20.9733C19.6276 20.9733 19.801 20.8933 19.9476 20.7466L20.961 19.7466C21.2943 19.4133 21.6143 19.16 21.921 19C22.2276 18.8133 22.5343 18.72 22.8676 18.72C23.121 18.72 23.3876 18.7733 23.681 18.8933C23.9743 19.0133 24.281 19.1866 24.6143 19.4133L29.0276 22.5466C29.3743 22.7866 29.6143 23.0666 29.761 23.4C29.8943 23.7333 29.9743 24.0666 29.9743 24.44Z" fill="white"/>
</svg>
