<svg width="34" height="33" viewBox="0 0 34 33" fill="none" xmlns="http://www.w3.org/2000/svg">
<path d="M14.4377 30.9176H13.0627C5.59646 30.9176 2.40646 27.8243 2.40646 20.5843V12.5843C2.40646 5.34431 5.59646 2.25098 13.0627 2.25098H21.3127C28.779 2.25098 31.969 5.34431 31.969 12.5843V15.251C31.969 15.7976 31.5015 16.251 30.9377 16.251C30.374 16.251 29.9065 15.7976 29.9065 15.251V12.5843C29.9065 6.43764 27.6515 4.25098 21.3127 4.25098H13.0627C6.72396 4.25098 4.46896 6.43764 4.46896 12.5843V20.5843C4.46896 26.731 6.72396 28.9176 13.0627 28.9176H14.4377C15.0015 28.9176 15.469 29.371 15.469 29.9176C15.469 30.4643 15.0015 30.9176 14.4377 30.9176Z" fill="white"/>
<path d="M30.938 12.9177H3.47934C2.91559 12.9177 2.44809 12.4644 2.44809 11.9177C2.44809 11.3711 2.91559 10.9177 3.47934 10.9177H30.938C31.5018 10.9177 31.9693 11.3711 31.9693 11.9177C31.9693 12.4644 31.5018 12.9177 30.938 12.9177Z" fill="white"/>
<path d="M17.188 22.251H3.47934C2.91559 22.251 2.44809 21.7976 2.44809 21.251C2.44809 20.7043 2.91559 20.251 3.47934 20.251H17.188C17.7518 20.251 18.2193 20.7043 18.2193 21.251C18.2193 21.7976 17.7518 22.251 17.188 22.251Z" fill="white"/>
<path d="M12.3886 30.9043C11.8249 30.9043 11.3574 30.451 11.3574 29.9043V3.27771C11.3574 2.73104 11.8249 2.27771 12.3886 2.27771C12.9524 2.27771 13.4199 2.73104 13.4199 3.27771V29.9043C13.4199 30.451 12.9661 30.9043 12.3886 30.9043Z" fill="white"/>
<path d="M22.0136 17.571C21.4499 17.571 20.9824 17.1177 20.9824 16.571V3.27771C20.9824 2.73104 21.4499 2.27771 22.0136 2.27771C22.5774 2.27771 23.0449 2.73104 23.0449 3.27771V16.571C23.0449 17.1177 22.5911 17.571 22.0136 17.571Z" fill="white"/>
<path d="M20.9829 30.9176C20.4054 30.9176 19.8828 30.7175 19.4978 30.3442C19.0303 29.9042 18.8241 29.2509 18.9341 28.5709L19.2503 26.451C19.3191 25.9443 19.6353 25.331 20.0203 24.9576L25.7266 19.4243C26.4691 18.7043 27.1979 18.3309 27.9679 18.2509C28.9166 18.1576 29.8653 18.5576 30.7591 19.4243C31.6528 20.2909 32.0653 21.1976 31.9691 22.131C31.9003 22.8776 31.5016 23.5843 30.7591 24.3043L25.0528 29.8375C24.6815 30.1975 24.0491 30.5043 23.5128 30.5843L21.3404 30.8909C21.2166 30.9042 21.0929 30.9176 20.9829 30.9176ZM28.2154 20.2509C28.2016 20.2509 28.1741 20.2509 28.1603 20.2509C27.8853 20.2776 27.5554 20.4775 27.1704 20.8509L21.4641 26.3842C21.3953 26.4509 21.2991 26.6509 21.2853 26.7443L20.9691 28.8642L23.2103 28.6243C23.3066 28.611 23.5129 28.5043 23.5816 28.451L29.2878 22.9176C29.6728 22.5443 29.8791 22.2243 29.9066 21.9576C29.9341 21.651 29.7278 21.2909 29.2878 20.8642C28.8753 20.4509 28.5179 20.2509 28.2154 20.2509Z" fill="white"/>
<path d="M29.2053 25.3977C29.109 25.3977 29.0265 25.3843 28.9303 25.3576C26.8678 24.7976 25.2178 23.1976 24.6403 21.1976C24.489 20.6643 24.8053 20.1177 25.3553 19.9711C25.919 19.8244 26.469 20.1311 26.6203 20.6644C27.0053 21.9977 28.1053 23.0644 29.4803 23.4377C30.0303 23.5844 30.3466 24.1444 30.1953 24.6644C30.0716 25.1177 29.6453 25.3977 29.2053 25.3977Z" fill="white"/>
</svg>
