<svg width="18" height="17" viewBox="0 0 18 17" fill="none" xmlns="http://www.w3.org/2000/svg">
<mask id="path-1-inside-1_3_217" fill="white">
<path d="M7.52734 13.8318C8.9248 13.8318 10.2344 13.4099 11.3242 12.6892L15.1738 16.5476C15.4287 16.7937 15.7539 16.9167 16.1055 16.9167C16.835 16.9167 17.3711 16.3455 17.3711 15.6248C17.3711 15.2908 17.2568 14.9656 17.0107 14.7195L13.1875 10.8787C13.9785 9.75366 14.4443 8.39136 14.4443 6.91479C14.4443 3.10913 11.333 -0.00219727 7.52734 -0.00219727C3.73047 -0.00219727 0.610352 3.10913 0.610352 6.91479C0.610352 10.7205 3.72168 13.8318 7.52734 13.8318ZM7.52734 11.9861C4.74121 11.9861 2.45605 9.70093 2.45605 6.91479C2.45605 4.12866 4.74121 1.84351 7.52734 1.84351C10.3135 1.84351 12.5986 4.12866 12.5986 6.91479C12.5986 9.70093 10.3135 11.9861 7.52734 11.9861Z"/>
</mask>
<path d="M7.52734 13.8318C8.9248 13.8318 10.2344 13.4099 11.3242 12.6892L15.1738 16.5476C15.4287 16.7937 15.7539 16.9167 16.1055 16.9167C16.835 16.9167 17.3711 16.3455 17.3711 15.6248C17.3711 15.2908 17.2568 14.9656 17.0107 14.7195L13.1875 10.8787C13.9785 9.75366 14.4443 8.39136 14.4443 6.91479C14.4443 3.10913 11.333 -0.00219727 7.52734 -0.00219727C3.73047 -0.00219727 0.610352 3.10913 0.610352 6.91479C0.610352 10.7205 3.72168 13.8318 7.52734 13.8318ZM7.52734 11.9861C4.74121 11.9861 2.45605 9.70093 2.45605 6.91479C2.45605 4.12866 4.74121 1.84351 7.52734 1.84351C10.3135 1.84351 12.5986 4.12866 12.5986 6.91479C12.5986 9.70093 10.3135 11.9861 7.52734 11.9861Z" fill="#3C3C43" fill-opacity="0.6"/>
<path d="M11.3242 12.6892L12.0321 11.9829L11.4546 11.4041L10.7726 11.8551L11.3242 12.6892ZM15.1738 16.5476L14.4659 17.2539L14.4725 17.2605L14.4792 17.267L15.1738 16.5476ZM17.0107 14.7195L16.302 15.425L16.3036 15.4266L17.0107 14.7195ZM13.1875 10.8787L12.3695 10.3035L11.887 10.9897L12.4788 11.5841L13.1875 10.8787ZM7.52734 14.8318C9.12807 14.8318 10.6284 14.3482 11.8758 13.5233L10.7726 11.8551C9.84036 12.4716 8.72154 12.8318 7.52734 12.8318V14.8318ZM10.6163 13.3955L14.4659 17.2539L15.8817 15.8413L12.0321 11.9829L10.6163 13.3955ZM14.4792 17.267C14.9314 17.7036 15.5103 17.9167 16.1055 17.9167V15.9167C15.9975 15.9167 15.926 15.8838 15.8684 15.8282L14.4792 17.267ZM16.1055 17.9167C17.4186 17.9167 18.3711 16.8658 18.3711 15.6248H16.3711C16.3711 15.7336 16.3324 15.8051 16.293 15.8459C16.2562 15.8839 16.1992 15.9167 16.1055 15.9167V17.9167ZM18.3711 15.6248C18.3711 15.0621 18.1758 14.4703 17.7178 14.0124L16.3036 15.4266C16.3379 15.4608 16.3711 15.5195 16.3711 15.6248H18.3711ZM17.7195 14.014L13.8962 10.1732L12.4788 11.5841L16.302 15.425L17.7195 14.014ZM14.0055 11.4538C14.9098 10.1678 15.4443 8.60611 15.4443 6.91479H13.4443C13.4443 8.17661 13.0473 9.33951 12.3695 10.3035L14.0055 11.4538ZM15.4443 6.91479C15.4443 2.55685 11.8853 -1.0022 7.52734 -1.0022V0.997803C10.7807 0.997803 13.4443 3.66142 13.4443 6.91479H15.4443ZM7.52734 -1.0022C3.17901 -1.0022 -0.389648 2.55602 -0.389648 6.91479H1.61035C1.61035 3.66224 4.28193 0.997803 7.52734 0.997803V-1.0022ZM-0.389648 6.91479C-0.389648 11.2727 3.16939 14.8318 7.52734 14.8318V12.8318C4.27396 12.8318 1.61035 10.1682 1.61035 6.91479H-0.389648ZM7.52734 10.9861C5.2935 10.9861 3.45605 9.14864 3.45605 6.91479H1.45605C1.45605 10.2532 4.18893 12.9861 7.52734 12.9861V10.9861ZM3.45605 6.91479C3.45605 4.68095 5.2935 2.84351 7.52734 2.84351V0.843506C4.18893 0.843506 1.45605 3.57638 1.45605 6.91479H3.45605ZM7.52734 2.84351C9.76119 2.84351 11.5986 4.68095 11.5986 6.91479H13.5986C13.5986 3.57638 10.8658 0.843506 7.52734 0.843506V2.84351ZM11.5986 6.91479C11.5986 9.14864 9.76119 10.9861 7.52734 10.9861V12.9861C10.8658 12.9861 13.5986 10.2532 13.5986 6.91479H11.5986Z" fill="#0071FF" mask="url(#path-1-inside-1_3_217)"/>
</svg>
