<svg width="25" height="24" viewBox="0 0 25 24" fill="none" xmlns="http://www.w3.org/2000/svg">
<path d="M12.4516 20.53C10.1216 20.53 7.79163 20.16 5.58163 19.42C4.74163 19.13 4.10163 18.54 3.82163 17.77C3.53163 17 3.63163 16.15 4.09163 15.39L5.24163 13.48C5.48163 13.08 5.70163 12.28 5.70163 11.81V8.91998C5.70163 5.19998 8.73163 2.16998 12.4516 2.16998C16.1716 2.16998 19.2016 5.19998 19.2016 8.91998V11.81C19.2016 12.27 19.4216 13.08 19.6616 13.49L20.8016 15.39C21.2316 16.11 21.3116 16.98 21.0216 17.77C20.7316 18.56 20.1016 19.16 19.3116 19.42C17.1116 20.16 14.7816 20.53 12.4516 20.53ZM12.4516 3.66998C9.56163 3.66998 7.20163 6.01998 7.20163 8.91998V11.81C7.20163 12.54 6.90163 13.62 6.53163 14.25L5.38163 16.16C5.16163 16.53 5.10163 16.92 5.23163 17.25C5.35163 17.59 5.65163 17.85 6.06163 17.99C10.2416 19.39 14.6716 19.39 18.8516 17.99C19.2116 17.87 19.4916 17.6 19.6216 17.24C19.7516 16.88 19.7216 16.49 19.5216 16.16L18.3716 14.25C17.9916 13.6 17.7016 12.53 17.7016 11.8V8.91998C17.7016 6.01998 15.3516 3.66998 12.4516 3.66998Z" fill="#292D32"/>
<path d="M14.3116 3.93999C14.2416 3.93999 14.1716 3.92999 14.1016 3.90999C13.8116 3.82999 13.5316 3.76999 13.2616 3.72999C12.4116 3.61999 11.5916 3.67999 10.8216 3.90999C10.5416 3.99999 10.2416 3.90999 10.0516 3.69999C9.86163 3.48999 9.80163 3.18999 9.91163 2.91999C10.3216 1.86999 11.3216 1.17999 12.4616 1.17999C13.6016 1.17999 14.6016 1.85999 15.0116 2.91999C15.1116 3.18999 15.0616 3.48999 14.8716 3.69999C14.7216 3.85999 14.5116 3.93999 14.3116 3.93999Z" fill="#292D32"/>
<path d="M12.4517 22.81C11.4617 22.81 10.5017 22.41 9.80166 21.71C9.10166 21.01 8.70166 20.05 8.70166 19.06H10.2017C10.2017 19.65 10.4417 20.23 10.8617 20.65C11.2817 21.07 11.8617 21.31 12.4517 21.31C13.6917 21.31 14.7017 20.3 14.7017 19.06H16.2017C16.2017 21.13 14.5217 22.81 12.4517 22.81Z" fill="#292D32"/>
</svg>
