<svg width="15" height="18" viewBox="0 0 15 18" fill="none" xmlns="http://www.w3.org/2000/svg">
<path d="M10.1858 0.966858H4.24994C1.6716 0.966858 0.134521 2.77519 0.134521 5.80852V12.7835C0.134521 15.8252 1.6716 17.6335 4.24994 17.6335H10.1787C12.757 17.6335 14.2941 15.8252 14.2941 12.7919V5.80852C14.3012 2.77519 12.7641 0.966858 10.1858 0.966858ZM10.7595 13.6752H3.67619C3.38577 13.6752 3.14494 13.3919 3.14494 13.0502C3.14494 12.7085 3.38577 12.4252 3.67619 12.4252H10.7595C11.0499 12.4252 11.2908 12.7085 11.2908 13.0502C11.2908 13.3919 11.0499 13.6752 10.7595 13.6752ZM10.7595 9.92519H3.67619C3.38577 9.92519 3.14494 9.64186 3.14494 9.30019C3.14494 8.95853 3.38577 8.67519 3.67619 8.67519H10.7595C11.0499 8.67519 11.2908 8.95853 11.2908 9.30019C11.2908 9.64186 11.0499 9.92519 10.7595 9.92519ZM10.7595 6.17519H3.67619C3.38577 6.17519 3.14494 5.89186 3.14494 5.55019C3.14494 5.20852 3.38577 4.92519 3.67619 4.92519H10.7595C11.0499 4.92519 11.2908 5.20852 11.2908 5.55019C11.2908 5.89186 11.0499 6.17519 10.7595 6.17519Z" fill="#0071FF"/>
</svg>
