<svg width="17" height="17" viewBox="0 0 17 17" fill="none" xmlns="http://www.w3.org/2000/svg">
<path d="M11.5348 0.583313H4.90061C2.01894 0.583313 0.301025 2.30123 0.301025 5.1829V11.8091C0.301025 14.6987 2.01894 16.4166 4.90061 16.4166H11.5269C14.4085 16.4166 16.1264 14.6987 16.1264 11.8171V5.1829C16.1344 2.30123 14.4164 0.583313 11.5348 0.583313ZM12.0335 10.2733L8.63728 13.6696C8.52644 13.7804 8.37603 13.8437 8.21769 13.8437C8.05936 13.8437 7.90894 13.7804 7.79811 13.6696L4.40186 10.2733C4.17228 10.0437 4.17228 9.66373 4.40186 9.43415C4.63144 9.20456 5.01144 9.20456 5.24103 9.43415L7.62394 11.8171V3.74998C7.62394 3.4254 7.89311 3.15623 8.21769 3.15623C8.54228 3.15623 8.81144 3.4254 8.81144 3.74998V11.8171L11.1944 9.43415C11.4239 9.20456 11.8039 9.20456 12.0335 9.43415C12.1523 9.5529 12.2077 9.70331 12.2077 9.85373C12.2077 10.0041 12.1444 10.1625 12.0335 10.2733Z" fill="white"/>
</svg>
