<svg width="24" height="25" viewBox="0 0 24 25" fill="none" xmlns="http://www.w3.org/2000/svg">
<path d="M17.45 23.3494C16.32 23.3494 15.13 23.0794 13.9 22.5594C12.7 22.0494 11.49 21.3494 10.31 20.4994C9.13 19.6394 8 18.6694 6.94 17.6194C5.88 16.5494 4.92 15.4194 4.07 14.2594C3.21 13.0594 2.52 11.8694 2.03 10.6994C1.51 9.46937 1.25 8.26937 1.25 7.13937C1.25 6.35937 1.39 5.61937 1.66 4.92937C1.95 4.20937 2.39 3.55937 3 2.98937C3.77 2.23937 4.65 1.84937 5.59 1.84937C5.98 1.84937 6.38 1.93937 6.72 2.09937C7.11 2.27937 7.44 2.54937 7.68 2.90937L10 6.17937C10.21 6.46937 10.37 6.74936 10.48 7.02937C10.61 7.32937 10.68 7.62937 10.68 7.91937C10.68 8.29937 10.57 8.66937 10.36 9.01937C10.21 9.28937 9.98 9.57937 9.69 9.86937L9.01 10.5794C9.02 10.6094 9.03 10.6294 9.04 10.6494C9.16 10.8594 9.4 11.2194 9.86 11.7594C10.34 12.3194 10.81 12.8194 11.27 13.2994C11.87 13.8894 12.35 14.3394 12.81 14.7194C13.38 15.1994 13.75 15.4394 13.97 15.5494L13.95 15.5994L14.68 14.8794C14.99 14.5694 15.29 14.3394 15.58 14.1894C16.13 13.8494 16.83 13.7894 17.53 14.0794C17.79 14.1894 18.07 14.3394 18.37 14.5494L21.69 16.9094C22.05 17.1594 22.33 17.4794 22.49 17.8594C22.64 18.2394 22.71 18.5894 22.71 18.9394C22.71 19.4194 22.6 19.8994 22.39 20.3494C22.18 20.7994 21.92 21.1894 21.59 21.5494C21.02 22.1794 20.4 22.6294 19.68 22.9194C18.99 23.1994 18.24 23.3494 17.45 23.3494ZM5.59 3.34937C5.04 3.34937 4.53 3.58937 4.04 4.06937C3.59 4.49937 3.26 4.96937 3.06 5.47937C2.85 5.99937 2.75 6.54937 2.75 7.13937C2.75 8.06937 2.97 9.07937 3.41 10.1194C3.86 11.1794 4.49 12.2794 5.29 13.3794C6.09 14.4794 7 15.5494 8 16.5594C9 17.5494 10.08 18.4694 11.19 19.2794C12.27 20.0694 13.38 20.7094 14.48 21.1694C16.19 21.8994 17.79 22.0694 19.11 21.5194C19.62 21.3094 20.07 20.9894 20.48 20.5294C20.71 20.2794 20.89 20.0094 21.04 19.6894C21.16 19.4394 21.22 19.1794 21.22 18.9194C21.22 18.7594 21.19 18.5994 21.11 18.4194C21.09 18.3694 21.02 18.2494 20.83 18.1194L17.51 15.7594C17.31 15.6194 17.13 15.5194 16.96 15.4494C16.7 15.3494 16.53 15.3394 16.31 15.4794C16.11 15.5794 15.93 15.7294 15.73 15.9294L14.97 16.6794C14.58 17.0594 13.98 17.1494 13.52 16.9794L13.25 16.8594C12.84 16.6394 12.36 16.2994 11.83 15.8494C11.34 15.4394 10.84 14.9694 10.2 14.3394C9.7 13.8294 9.22 13.2994 8.71 12.7194C8.24 12.1694 7.9 11.6994 7.69 11.3094L7.56 11.0094C7.5 10.7894 7.48 10.6594 7.48 10.5194C7.48 10.1594 7.61 9.83937 7.86 9.58937L8.61 8.80937C8.81 8.60937 8.96 8.41937 9.06 8.24937C9.14 8.11937 9.17 8.00937 9.17 7.90937C9.17 7.82937 9.14 7.70936 9.09 7.58937C9.03 7.41936 8.92 7.24936 8.78 7.04937L6.46 3.76937C6.36 3.62937 6.24 3.52937 6.09 3.45937C5.93 3.38937 5.76 3.34937 5.59 3.34937ZM13.95 15.6094L13.79 16.2894L14.06 15.5894C14.02 15.5794 13.98 15.5894 13.95 15.6094Z" fill="#787878"/>
</svg>
