<svg width="24" height="24" viewBox="0 0 24 24" fill="none" xmlns="http://www.w3.org/2000/svg">
<path d="M7.08002 16.0968C6.72002 16.0968 6.36003 16.0068 6.03003 15.8168C5.36003 15.4368 4.96002 14.7568 4.96002 13.9968V10.4268C4.96002 10.1668 4.79002 9.72684 4.58002 9.47684L2.06 6.82681C1.59 6.36681 1.25 5.56682 1.25 4.95682V3.40683C1.25 2.19683 2.16998 1.23682 3.34998 1.23682H12.25C13.41 1.23682 14.35 2.17682 14.35 3.33682V4.81683C14.35 5.59683 13.9 6.45682 13.46 6.89682L10.53 9.48682C10.3 9.67682 10.11 10.1368 10.11 10.4768V13.3768C10.11 14.0668 9.69001 14.8368 9.14001 15.1668L8.21997 15.7668C7.85997 15.9868 7.47002 16.0968 7.08002 16.0968ZM3.34998 2.74683C3.00998 2.74683 2.75 3.03684 2.75 3.41684V4.96683C2.75 5.13683 2.92001 5.56683 3.14001 5.78683L5.71997 8.49683C6.09997 8.96683 6.46997 9.73682 6.46997 10.4268V13.9968C6.46997 14.2968 6.66003 14.4468 6.78003 14.5068C6.94003 14.5968 7.19998 14.6468 7.41998 14.5068L8.34998 13.9068C8.46998 13.8368 8.60999 13.5568 8.60999 13.3868V10.4868C8.60999 9.69682 8.99999 8.82681 9.54999 8.35681L12.43 5.80682C12.61 5.62682 12.85 5.13683 12.85 4.81683V3.33682C12.85 3.00682 12.58 2.73682 12.25 2.73682H3.34998V2.74683Z" fill="#787878"/>
<path d="M15 22.7468H9C3.57 22.7468 1.25 20.4268 1.25 14.9968V11.9968C1.25 11.5868 1.59 11.2468 2 11.2468C2.41 11.2468 2.75 11.5868 2.75 11.9968V14.9968C2.75 19.6068 4.39 21.2468 9 21.2468H15C19.61 21.2468 21.25 19.6068 21.25 14.9968V8.99682C21.25 6.09682 20.57 4.4168 19.04 3.5468C18.88 3.4568 18.35 3.21683 16.83 2.97683C16.42 2.91683 16.14 2.52681 16.21 2.11681C16.28 1.70681 16.67 1.42682 17.07 1.49682C18.38 1.70682 19.27 1.94681 19.78 2.23681C21.8 3.38681 22.75 5.53682 22.75 8.99682V14.9968C22.75 20.4268 20.43 22.7468 15 22.7468Z" fill="#787878"/>
<path d="M18 13.7468H13C12.59 13.7468 12.25 13.4068 12.25 12.9968C12.25 12.5868 12.59 12.2468 13 12.2468H18C18.41 12.2468 18.75 12.5868 18.75 12.9968C18.75 13.4068 18.41 13.7468 18 13.7468Z" fill="#787878"/>
<path d="M18 17.7468H11C10.59 17.7468 10.25 17.4068 10.25 16.9968C10.25 16.5868 10.59 16.2468 11 16.2468H18C18.41 16.2468 18.75 16.5868 18.75 16.9968C18.75 17.4068 18.41 17.7468 18 17.7468Z" fill="#787878"/>
</svg>
