<svg width="37" height="38" viewBox="0 0 37 38" fill="none" xmlns="http://www.w3.org/2000/svg">
<path d="M26.9941 6.3011L23.4333 2.74032C20.8899 0.19691 16.7115 0.19691 14.168 2.74032L10.6073 6.3011C9.89874 7.00963 9.89874 8.17233 10.6073 8.88085L17.529 15.8026C18.2375 16.5111 19.382 16.5111 20.0906 15.8026L27.0123 8.88085C27.7026 8.17233 27.7026 7.00963 26.9941 6.3011Z" fill="#0071FF"/>
<path d="M6.10179 10.8065L2.54101 14.3673C-0.0024001 16.9107 -0.0024001 21.0892 2.54101 23.6326L6.10179 27.1934C6.81032 27.9019 7.95485 27.9019 8.66337 27.1934L15.5851 20.2717C16.2936 19.5631 16.2936 18.4186 15.5851 17.7101L8.68154 10.8065C7.97302 10.098 6.81032 10.098 6.10179 10.8065Z" fill="#0071FF"/>
<path d="M35.0604 14.3673L31.4996 10.8065C30.7911 10.098 29.6465 10.098 28.938 10.8065L22.0163 17.7283C21.3078 18.4368 21.3078 19.5813 22.0163 20.2898L28.938 27.2116C29.6465 27.9201 30.7911 27.9201 31.4996 27.2116L35.0604 23.6508C37.6038 21.0892 37.6038 16.9107 35.0604 14.3673Z" fill="#0071FF"/>
<path d="M10.6073 31.699L14.1681 35.2598C16.7115 37.8032 20.8899 37.8032 23.4334 35.2598L26.9941 31.699C27.7027 30.9905 27.7027 29.846 26.9941 29.1374L20.0724 22.2157C19.3639 21.5072 18.2194 21.5072 17.5108 22.2157L10.5891 29.1374C9.89876 29.8278 9.89876 30.9905 10.6073 31.699Z" fill="#0071FF"/>
</svg>
