<svg width="18" height="18" viewBox="0 0 18 18" fill="none" xmlns="http://www.w3.org/2000/svg">
<mask id="path-1-inside-1_172_21" fill="white">
<path d="M7.90186 14.0332C9.29932 14.0332 10.6089 13.6113 11.6987 12.8906L15.5483 16.749C15.8032 16.9951 16.1284 17.1182 16.48 17.1182C17.2095 17.1182 17.7456 16.5469 17.7456 15.8262C17.7456 15.4922 17.6313 15.167 17.3853 14.9209L13.562 11.0801C14.353 9.95508 14.8188 8.59277 14.8188 7.11621C14.8188 3.31055 11.7075 0.199219 7.90186 0.199219C4.10498 0.199219 0.984863 3.31055 0.984863 7.11621C0.984863 10.9219 4.09619 14.0332 7.90186 14.0332ZM7.90186 12.1875C5.11572 12.1875 2.83057 9.90234 2.83057 7.11621C2.83057 4.33008 5.11572 2.04492 7.90186 2.04492C10.688 2.04492 12.9731 4.33008 12.9731 7.11621C12.9731 9.90234 10.688 12.1875 7.90186 12.1875Z"/>
</mask>
<path d="M7.90186 14.0332C9.29932 14.0332 10.6089 13.6113 11.6987 12.8906L15.5483 16.749C15.8032 16.9951 16.1284 17.1182 16.48 17.1182C17.2095 17.1182 17.7456 16.5469 17.7456 15.8262C17.7456 15.4922 17.6313 15.167 17.3853 14.9209L13.562 11.0801C14.353 9.95508 14.8188 8.59277 14.8188 7.11621C14.8188 3.31055 11.7075 0.199219 7.90186 0.199219C4.10498 0.199219 0.984863 3.31055 0.984863 7.11621C0.984863 10.9219 4.09619 14.0332 7.90186 14.0332ZM7.90186 12.1875C5.11572 12.1875 2.83057 9.90234 2.83057 7.11621C2.83057 4.33008 5.11572 2.04492 7.90186 2.04492C10.688 2.04492 12.9731 4.33008 12.9731 7.11621C12.9731 9.90234 10.688 12.1875 7.90186 12.1875Z" fill="#3C3C43" fill-opacity="0.6"/>
<path d="M11.6987 12.8906L12.4066 12.1843L11.8291 11.6055L11.1471 12.0565L11.6987 12.8906ZM15.5483 16.749L14.8404 17.4553L14.847 17.4619L14.8537 17.4684L15.5483 16.749ZM17.3853 14.9209L16.6765 15.6264L16.6781 15.628L17.3853 14.9209ZM13.562 11.0801L12.744 10.5049L12.2615 11.1911L12.8533 11.7856L13.562 11.0801ZM7.90186 15.0332C9.50258 15.0332 11.0029 14.5496 12.2503 13.7247L11.1471 12.0565C10.2149 12.673 9.09605 13.0332 7.90186 13.0332V15.0332ZM10.9908 13.5969L14.8404 17.4553L16.2563 16.0427L12.4066 12.1843L10.9908 13.5969ZM14.8537 17.4684C15.306 17.905 15.8848 18.1182 16.48 18.1182V16.1182C16.372 16.1182 16.3005 16.0852 16.2429 16.0296L14.8537 17.4684ZM16.48 18.1182C17.7931 18.1182 18.7456 17.0672 18.7456 15.8262H16.7456C16.7456 15.9351 16.7069 16.0065 16.6675 16.0473C16.6307 16.0854 16.5737 16.1182 16.48 16.1182V18.1182ZM18.7456 15.8262C18.7456 15.2635 18.5503 14.6717 18.0924 14.2138L16.6781 15.628C16.7124 15.6622 16.7456 15.7209 16.7456 15.8262H18.7456ZM18.094 14.2154L14.2707 10.3746L12.8533 11.7856L16.6765 15.6264L18.094 14.2154ZM14.38 11.6553C15.2843 10.3692 15.8188 8.80752 15.8188 7.11621H13.8188C13.8188 8.37802 13.4218 9.54092 12.744 10.5049L14.38 11.6553ZM15.8188 7.11621C15.8188 2.75826 12.2598 -0.800781 7.90186 -0.800781V1.19922C11.1552 1.19922 13.8188 3.86283 13.8188 7.11621H15.8188ZM7.90186 -0.800781C3.55352 -0.800781 -0.0151367 2.75744 -0.0151367 7.11621H1.98486C1.98486 3.86366 4.65644 1.19922 7.90186 1.19922V-0.800781ZM-0.0151367 7.11621C-0.0151367 11.4742 3.54391 15.0332 7.90186 15.0332V13.0332C4.64848 13.0332 1.98486 10.3696 1.98486 7.11621H-0.0151367ZM7.90186 11.1875C5.66801 11.1875 3.83057 9.35006 3.83057 7.11621H1.83057C1.83057 10.4546 4.56344 13.1875 7.90186 13.1875V11.1875ZM3.83057 7.11621C3.83057 4.88236 5.66801 3.04492 7.90186 3.04492V1.04492C4.56344 1.04492 1.83057 3.77779 1.83057 7.11621H3.83057ZM7.90186 3.04492C10.1357 3.04492 11.9731 4.88236 11.9731 7.11621H13.9731C13.9731 3.77779 11.2403 1.04492 7.90186 1.04492V3.04492ZM11.9731 7.11621C11.9731 9.35006 10.1357 11.1875 7.90186 11.1875V13.1875C11.2403 13.1875 13.9731 10.4546 13.9731 7.11621H11.9731Z" fill="#787878" mask="url(#path-1-inside-1_172_21)"/>
</svg>
