<svg width="24" height="25" viewBox="0 0 24 25" fill="none" xmlns="http://www.w3.org/2000/svg">
<path d="M8 22.9487H21C21.96 22.9487 22.75 22.1587 22.75 21.1987V8.19873C22.75 3.77873 20.42 1.44873 16 1.44873H8C3.58 1.44873 1.25 3.77873 1.25 8.19873V16.1987C1.25 20.6187 3.58 22.9487 8 22.9487ZM16 2.94873C19.58 2.94873 21.25 4.61873 21.25 8.19873V21.1987C21.25 21.3387 21.14 21.4487 21 21.4487H8C4.42 21.4487 2.75 19.7787 2.75 16.1987V8.19873C2.75 4.61873 4.42 2.94873 8 2.94873H16Z" fill="#787878"/>
<path d="M7 10.4487H17C17.41 10.4487 17.75 10.1087 17.75 9.69873C17.75 9.28873 17.41 8.94873 17 8.94873H7C6.59 8.94873 6.25 9.28873 6.25 9.69873C6.25 10.1087 6.59 10.4487 7 10.4487Z" fill="#787878"/>
<path d="M10 15.4487H17C17.41 15.4487 17.75 15.1087 17.75 14.6987C17.75 14.2887 17.41 13.9487 17 13.9487H10C9.59 13.9487 9.25 14.2887 9.25 14.6987C9.25 15.1087 9.59 15.4487 10 15.4487Z" fill="#787878"/>
</svg>
