<svg width="24" height="25" viewBox="0 0 24 25" fill="none" xmlns="http://www.w3.org/2000/svg">
<path d="M17.9998 8.70811C17.9698 8.70811 17.9498 8.70811 17.9198 8.70811H17.8698C15.9798 8.64811 14.5698 7.18811 14.5698 5.38811C14.5698 3.54811 16.0698 2.05811 17.8998 2.05811C19.7298 2.05811 21.2298 3.55811 21.2298 5.38811C21.2198 7.19811 19.8098 8.65811 18.0098 8.71811C18.0098 8.70811 18.0098 8.70811 17.9998 8.70811ZM17.8998 3.54811C16.8898 3.54811 16.0698 4.36811 16.0698 5.37811C16.0698 6.36811 16.8398 7.16811 17.8298 7.20811C17.8398 7.19811 17.9198 7.19811 18.0098 7.20811C18.9798 7.15811 19.7298 6.35811 19.7398 5.37811C19.7398 4.36811 18.9198 3.54811 17.8998 3.54811Z" fill="#787878"/>
<path d="M18.01 16.0781C17.62 16.0781 17.23 16.0481 16.84 15.9781C16.43 15.9081 16.16 15.5181 16.23 15.1081C16.3 14.6981 16.69 14.4281 17.1 14.4981C18.33 14.7081 19.63 14.4781 20.5 13.8981C20.97 13.5881 21.22 13.1981 21.22 12.8081C21.22 12.4181 20.96 12.0381 20.5 11.7281C19.63 11.1481 18.31 10.9181 17.07 11.1381C16.66 11.2181 16.27 10.9381 16.2 10.5281C16.13 10.1181 16.4 9.72812 16.81 9.65812C18.44 9.36812 20.13 9.67812 21.33 10.4781C22.21 11.0681 22.72 11.9081 22.72 12.8081C22.72 13.6981 22.22 14.5481 21.33 15.1481C20.42 15.7481 19.24 16.0781 18.01 16.0781Z" fill="#787878"/>
<path d="M5.96998 8.7081C5.95998 8.7081 5.94998 8.7081 5.94998 8.7081C4.14998 8.6481 2.73998 7.18809 2.72998 5.38809C2.72998 3.54809 4.22998 2.0481 6.05998 2.0481C7.88998 2.0481 9.38998 3.5481 9.38998 5.3781C9.38998 7.1881 7.97998 8.6481 6.17998 8.7081L5.96998 7.9581L6.03998 8.7081C6.01998 8.7081 5.98998 8.7081 5.96998 8.7081ZM6.06998 7.2081C6.12998 7.2081 6.17998 7.20809 6.23998 7.21809C7.12998 7.17809 7.90998 6.37809 7.90998 5.38809C7.90998 4.37809 7.08998 3.55809 6.07998 3.55809C5.06998 3.55809 4.24998 4.37809 4.24998 5.38809C4.24998 6.36809 5.00998 7.15809 5.97998 7.21809C5.98998 7.20809 6.02998 7.2081 6.06998 7.2081Z" fill="#787878"/>
<path d="M5.96 16.0781C4.73 16.0781 3.55 15.7481 2.64 15.1481C1.76 14.5581 1.25 13.7081 1.25 12.8081C1.25 11.9181 1.76 11.0681 2.64 10.4781C3.84 9.67812 5.53 9.36812 7.16 9.65812C7.57 9.72812 7.84 10.1181 7.77 10.5281C7.7 10.9381 7.31 11.2181 6.9 11.1381C5.66 10.9181 4.35 11.1481 3.47 11.7281C3 12.0381 2.75 12.4181 2.75 12.8081C2.75 13.1981 3.01 13.5881 3.47 13.8981C4.34 14.4781 5.64 14.7081 6.87 14.4981C7.28 14.4281 7.67 14.7081 7.74 15.1081C7.81 15.5181 7.54 15.9081 7.13 15.9781C6.74 16.0481 6.35 16.0781 5.96 16.0781Z" fill="#787878"/>
<path d="M11.9998 16.1781C11.9698 16.1781 11.9498 16.1781 11.9198 16.1781H11.8698C9.97982 16.1181 8.56982 14.6581 8.56982 12.8581C8.56982 11.0181 10.0698 9.52808 11.8998 9.52808C13.7298 9.52808 15.2298 11.0281 15.2298 12.8581C15.2198 14.6681 13.8098 16.1281 12.0098 16.1881C12.0098 16.1781 12.0098 16.1781 11.9998 16.1781ZM11.8998 11.0181C10.8898 11.0181 10.0698 11.8381 10.0698 12.8481C10.0698 13.8381 10.8398 14.6381 11.8298 14.6781C11.8398 14.6681 11.9198 14.6681 12.0098 14.6781C12.9798 14.6281 13.7298 13.8281 13.7398 12.8481C13.7398 11.8481 12.9198 11.0181 11.8998 11.0181Z" fill="#787878"/>
<path d="M11.9998 23.5581C10.7998 23.5581 9.59978 23.2481 8.66978 22.6181C7.78978 22.0281 7.27979 21.1881 7.27979 20.2881C7.27979 19.3981 7.77978 18.5381 8.66978 17.9481C10.5398 16.7081 13.4698 16.7081 15.3298 17.9481C16.2098 18.5381 16.7198 19.3781 16.7198 20.2781C16.7198 21.1681 16.2198 22.0281 15.3298 22.6181C14.3998 23.2381 13.1998 23.5581 11.9998 23.5581ZM9.49979 19.2081C9.02979 19.5181 8.77979 19.9081 8.77979 20.2981C8.77979 20.6881 9.03979 21.0681 9.49979 21.3781C10.8498 22.2881 13.1398 22.2881 14.4898 21.3781C14.9598 21.0681 15.2098 20.6781 15.2098 20.2881C15.2098 19.8981 14.9498 19.5181 14.4898 19.2081C13.1498 18.2981 10.8598 18.3081 9.49979 19.2081Z" fill="#787878"/>
</svg>
