<svg width="25" height="25" viewBox="0 0 25 25" fill="none" xmlns="http://www.w3.org/2000/svg">
<path d="M18.4359 18.3464H6.23587C3.91587 18.3464 2.58588 17.0164 2.58588 14.6964V2.59644C2.58588 2.18644 2.92588 1.84644 3.33588 1.84644H21.3359C21.7459 1.84644 22.0859 2.18644 22.0859 2.59644V14.6964C22.0859 17.0164 20.7559 18.3464 18.4359 18.3464ZM4.08588 3.34644V14.6964C4.08588 16.1864 4.74587 16.8464 6.23587 16.8464H18.4259C19.9159 16.8464 20.5759 16.1864 20.5759 14.6964V3.34644H4.08588Z" fill="#787878"/>
<path d="M22.3359 3.34644H2.33588C1.92588 3.34644 1.58588 3.00644 1.58588 2.59644C1.58588 2.18644 1.92588 1.84644 2.33588 1.84644H22.3359C22.7459 1.84644 23.0859 2.18644 23.0859 2.59644C23.0859 3.00644 22.7459 3.34644 22.3359 3.34644Z" fill="#787878"/>
<path d="M8.33614 23.3464C8.05614 23.3464 7.79613 23.1964 7.66613 22.9364C7.47613 22.5664 7.62616 22.1164 8.00616 21.9264L11.5861 20.1364V17.5964C11.5861 17.1864 11.9261 16.8464 12.3361 16.8464C12.7461 16.8464 13.0861 17.1864 13.0861 17.5964V20.5964C13.0861 20.8764 12.9261 21.1364 12.6661 21.2664L8.66613 23.2664C8.56613 23.3164 8.44614 23.3464 8.33614 23.3464Z" fill="#787878"/>
<path d="M16.3358 23.3464C16.2258 23.3464 16.1058 23.3164 16.0058 23.2664L12.0058 21.2664C11.6358 21.0764 11.4858 20.6264 11.6658 20.2564C11.8558 19.8864 12.3058 19.7364 12.6758 19.9164L16.6758 21.9164C17.0458 22.1064 17.1958 22.5563 17.0158 22.9263C16.8758 23.1963 16.6058 23.3464 16.3358 23.3464Z" fill="#787878"/>
</svg>
