<svg width="24" height="25" viewBox="0 0 24 25" fill="none" xmlns="http://www.w3.org/2000/svg">
<path d="M8.67 23.1475H2C1.59 23.1475 1.25 22.8075 1.25 22.3975V16.3975C1.25 14.8775 2.48 13.6475 4 13.6475H8.67C9.08 13.6475 9.42 13.9875 9.42 14.3975V22.3975C9.42 22.8075 9.08 23.1475 8.67 23.1475ZM2.75 21.6475H7.92V15.1475H4C3.31 15.1475 2.75 15.7075 2.75 16.3975V21.6475Z" fill="#787878"/>
<path d="M15.3302 23.1475H8.66016C8.25016 23.1475 7.91016 22.8075 7.91016 22.3975V12.3975C7.91016 10.8775 9.14016 9.64746 10.6602 9.64746H13.3302C14.8502 9.64746 16.0802 10.8775 16.0802 12.3975V22.3975C16.0802 22.8075 15.7502 23.1475 15.3302 23.1475ZM9.42015 21.6475H14.5902V12.3975C14.5902 11.7075 14.0302 11.1475 13.3402 11.1475H10.6702C9.98015 11.1475 9.42015 11.7075 9.42015 12.3975V21.6475Z" fill="#787878"/>
<path d="M22.0001 23.1475H15.3301C14.9201 23.1475 14.5801 22.8075 14.5801 22.3975V17.3975C14.5801 16.9875 14.9201 16.6475 15.3301 16.6475H20.0001C21.5201 16.6475 22.7501 17.8775 22.7501 19.3975V22.3975C22.7501 22.8075 22.4101 23.1475 22.0001 23.1475ZM16.0801 21.6475H21.2501V19.3975C21.2501 18.7075 20.6901 18.1475 20.0001 18.1475H16.0801V21.6475Z" fill="#787878"/>
<path d="M13.6999 8.74745C13.4599 8.74745 13.1599 8.67743 12.8199 8.47743L11.9999 7.98744L11.1899 8.46745C10.3699 8.95745 9.82989 8.66745 9.62989 8.52745C9.42989 8.38745 8.99989 7.94745 9.20989 7.02745L9.39989 6.19743L8.71989 5.51744C8.29989 5.09744 8.14989 4.59743 8.29989 4.13743C8.44989 3.67743 8.85989 3.35743 9.43989 3.25743L10.3099 3.10743L10.7999 2.12745C11.3399 1.05745 12.6499 1.05745 13.1799 2.12745L13.6699 3.10743L14.5399 3.25743C15.1199 3.35743 15.5399 3.67743 15.6799 4.13743C15.8299 4.59743 15.6699 5.09744 15.2599 5.51744L14.5799 6.19743L14.7699 7.02745C14.9799 7.95745 14.5499 8.38745 14.3499 8.53746C14.2599 8.61746 14.0299 8.74745 13.6999 8.74745ZM11.9999 6.47743C12.2399 6.47743 12.4799 6.53745 12.6799 6.65745L13.2399 6.98744L13.1199 6.44743C13.0199 6.02743 13.1699 5.51744 13.4799 5.20744L13.9899 4.69743L13.3599 4.58744C12.9599 4.51744 12.5699 4.22744 12.3899 3.86744L11.9999 3.11744L11.6199 3.86744C11.4399 4.22744 11.0499 4.51744 10.6499 4.58744L10.0199 4.68745L10.5299 5.19743C10.8399 5.50743 10.9799 6.01745 10.8899 6.43745L10.7699 6.97743L11.3299 6.64744C11.5199 6.52744 11.7599 6.47743 11.9999 6.47743Z" fill="#787878"/>
</svg>
